<svg width="480" height="106" viewBox="0 0 480 106" fill="none" xmlns="http://www.w3.org/2000/svg">
<path d="M38.7549 66.3731C38.7549 65.2385 38.5803 64.2202 38.2312 63.3183C37.9112 62.3873 37.3002 61.5436 36.3983 60.7872C35.4964 60.0016 34.2309 59.2307 32.6016 58.4742C30.9724 57.7178 28.8631 56.9323 26.2738 56.1177C23.3936 55.1867 20.6588 54.1393 18.0695 52.9756C15.5092 51.8118 13.2399 50.459 11.2616 48.9171C9.31234 47.346 7.77039 45.5277 6.63574 43.462C5.53019 41.3964 4.97742 38.9962 4.97742 36.2614C4.97742 33.6139 5.55929 31.2137 6.72302 29.0608C7.88676 26.8788 9.51599 25.0168 11.6107 23.4749C13.7054 21.9038 16.1784 20.6964 19.0295 19.8527C21.9098 19.009 25.0664 18.5872 28.4995 18.5872C33.1835 18.5872 37.2711 19.4309 40.7623 21.1183C44.2535 22.8057 46.9592 25.1186 48.8794 28.0571C50.8287 30.9955 51.8033 34.3558 51.8033 38.1379H38.7985C38.7985 36.276 38.4058 34.6467 37.6202 33.2502C36.8638 31.8247 35.7001 30.7046 34.129 29.89C32.5871 29.0753 30.6378 28.668 28.2812 28.668C26.012 28.668 24.1209 29.0172 22.608 29.7154C21.0952 30.3845 19.9605 31.301 19.2041 32.4647C18.4477 33.5994 18.0695 34.8795 18.0695 36.3051C18.0695 37.3815 18.3313 38.3561 18.855 39.2289C19.4078 40.1017 20.2224 40.9164 21.2988 41.6728C22.3753 42.4292 23.699 43.142 25.2701 43.8112C26.8411 44.4803 28.6595 45.1349 30.7251 45.775C34.1872 46.8223 37.2275 48.0006 39.8459 49.3098C42.4934 50.619 44.7045 52.0882 46.4792 53.7175C48.2539 55.3467 49.5922 57.1941 50.4941 59.2598C51.396 61.3254 51.8469 63.6674 51.8469 66.2858C51.8469 69.0497 51.3087 71.5226 50.2322 73.7047C49.1558 75.8867 47.5993 77.7341 45.5627 79.2469C43.5262 80.7598 41.0969 81.909 38.2748 82.6945C35.4528 83.48 32.2961 83.8728 28.8049 83.8728C25.6628 83.8728 22.5644 83.4655 19.5096 82.6509C16.4548 81.8072 13.6764 80.5416 11.1743 78.8542C8.70138 77.1668 6.72302 75.0139 5.23926 72.3954C3.75549 69.777 3.01361 66.6786 3.01361 63.1001H16.1493C16.1493 65.0785 16.4548 66.7513 17.0657 68.1187C17.6767 69.4861 18.535 70.5917 19.6405 71.4354C20.7751 72.2791 22.1134 72.89 23.6554 73.2682C25.2264 73.6465 26.943 73.8356 28.8049 73.8356C31.0742 73.8356 32.9362 73.5155 34.3909 72.8755C35.8746 72.2354 36.9656 71.3481 37.6639 70.2134C38.3912 69.0788 38.7549 67.7987 38.7549 66.3731ZM87.8937 71.6972V35.7814H100.462V83H88.6356L87.8937 71.6972ZM89.2902 62.0091L92.9996 61.9218C92.9996 65.0639 92.6359 67.9878 91.9086 70.6935C91.1812 73.3701 90.0902 75.6976 88.6356 77.6759C87.1809 79.6252 85.348 81.1526 83.1369 82.2581C80.9258 83.3346 78.3219 83.8728 75.3253 83.8728C73.0269 83.8728 70.9031 83.5528 68.9539 82.9127C67.0337 82.2436 65.3754 81.2108 63.9789 79.8143C62.6115 78.3887 61.535 76.5704 60.7495 74.3593C59.9931 72.1191 59.6149 69.4279 59.6149 66.2858V35.7814H72.1832V66.3731C72.1832 67.7696 72.3432 68.9479 72.6633 69.908C73.0124 70.868 73.4924 71.6536 74.1034 72.2645C74.7144 72.8755 75.4271 73.3119 76.2418 73.5737C77.0855 73.8356 78.0165 73.9665 79.0347 73.9665C81.624 73.9665 83.6606 73.4428 85.1443 72.3954C86.6572 71.3481 87.7191 69.9225 88.3301 68.1187C88.9701 66.2858 89.2902 64.2493 89.2902 62.0091ZM110.761 35.7814H123.373V85.8366C123.373 89.3278 122.733 92.2808 121.453 94.6956C120.173 97.1103 118.325 98.9432 115.911 100.194C113.496 101.445 110.572 102.071 107.139 102.071C106.063 102.071 105.015 102.013 103.997 101.896C102.95 101.78 101.873 101.591 100.768 101.329L100.811 91.6844C101.509 91.8008 102.193 91.888 102.862 91.9462C103.502 92.0335 104.157 92.0771 104.826 92.0771C106.135 92.0771 107.226 91.8589 108.099 91.4225C108.972 90.9861 109.626 90.3024 110.063 89.3715C110.528 88.4696 110.761 87.2913 110.761 85.8366V35.7814ZM109.757 23.4749C109.757 21.642 110.397 20.1291 111.678 18.9363C112.987 17.7434 114.703 17.147 116.827 17.147C118.98 17.147 120.697 17.7434 121.977 18.9363C123.257 20.1291 123.897 21.642 123.897 23.4749C123.897 25.3077 123.257 26.8206 121.977 28.0134C120.697 29.2063 118.98 29.8027 116.827 29.8027C114.703 29.8027 112.987 29.2063 111.678 28.0134C110.397 26.8206 109.757 25.3077 109.757 23.4749ZM155.099 83.8728C151.434 83.8728 148.146 83.2909 145.237 82.1272C142.327 80.9344 139.855 79.2906 137.818 77.1959C135.811 75.1011 134.269 72.6718 133.192 69.908C132.116 67.115 131.577 64.1475 131.577 61.0054V59.2598C131.577 55.6813 132.087 52.4083 133.105 49.4407C134.123 46.4732 135.578 43.8984 137.469 41.7164C139.389 39.5344 141.717 37.8616 144.451 36.6978C147.186 35.505 150.27 34.9086 153.703 34.9086C157.049 34.9086 160.016 35.4613 162.606 36.5669C165.195 37.6724 167.362 39.2435 169.108 41.28C170.883 43.3166 172.221 45.7604 173.123 48.6116C174.025 51.4336 174.476 54.5757 174.476 58.0378V63.2747H136.945V54.8958H162.126V53.9357C162.126 52.1901 161.806 50.6336 161.165 49.2662C160.555 47.8697 159.624 46.7641 158.372 45.9495C157.121 45.1349 155.521 44.7276 153.572 44.7276C151.914 44.7276 150.488 45.0913 149.295 45.8186C148.103 46.5459 147.128 47.5642 146.371 48.8734C145.644 50.1826 145.091 51.7246 144.713 53.4993C144.364 55.2449 144.189 57.165 144.189 59.2598V61.0054C144.189 62.8964 144.451 64.642 144.975 66.2422C145.528 67.8423 146.299 69.2243 147.288 70.388C148.306 71.5517 149.528 72.4536 150.954 73.0937C152.408 73.7337 154.052 74.0538 155.885 74.0538C158.154 74.0538 160.264 73.6174 162.213 72.7446C164.191 71.8427 165.893 70.4898 167.319 68.686L173.428 75.3193C172.439 76.7449 171.086 78.1123 169.37 79.4215C167.682 80.7307 165.646 81.8072 163.26 82.6509C160.875 83.4655 158.154 83.8728 155.099 83.8728ZM194.899 35.7814V83H182.287V35.7814H194.899ZM181.502 23.4749C181.502 21.642 182.142 20.1291 183.422 18.9363C184.702 17.7434 186.419 17.147 188.571 17.147C190.695 17.147 192.397 17.7434 193.677 18.9363C194.987 20.1291 195.641 21.642 195.641 23.4749C195.641 25.3077 194.987 26.8206 193.677 28.0134C192.397 29.2063 190.695 29.8027 188.571 29.8027C186.419 29.8027 184.702 29.2063 183.422 28.0134C182.142 26.8206 181.502 25.3077 181.502 23.4749ZM228.415 35.7814V44.684H200.922V35.7814H228.415ZM207.729 24.1295H220.298V68.7733C220.298 70.1407 220.472 71.1881 220.822 71.9154C221.2 72.6427 221.753 73.1519 222.48 73.4428C223.207 73.7047 224.124 73.8356 225.229 73.8356C226.015 73.8356 226.713 73.8065 227.324 73.7483C227.964 73.661 228.502 73.5737 228.939 73.4865L228.982 82.7382C227.906 83.0873 226.742 83.3637 225.491 83.5673C224.24 83.771 222.858 83.8728 221.345 83.8728C218.581 83.8728 216.167 83.4219 214.101 82.52C212.064 81.589 210.493 80.1052 209.388 78.0687C208.282 76.0321 207.729 73.3555 207.729 70.0389V24.1295ZM232.43 59.8707V58.9543C232.43 55.4922 232.924 52.3064 233.914 49.3971C234.903 46.4587 236.343 43.913 238.234 41.7601C240.125 39.6072 242.452 37.9343 245.216 36.7415C247.98 35.5195 251.151 34.9086 254.73 34.9086C258.308 34.9086 261.494 35.5195 264.287 36.7415C267.08 37.9343 269.422 39.6072 271.313 41.7601C273.233 43.913 274.688 46.4587 275.677 49.3971C276.666 52.3064 277.161 55.4922 277.161 58.9543V59.8707C277.161 63.3038 276.666 66.4895 275.677 69.4279C274.688 72.3373 273.233 74.8829 271.313 77.0649C269.422 79.2179 267.095 80.8907 264.331 82.0836C261.567 83.2764 258.396 83.8728 254.817 83.8728C251.239 83.8728 248.053 83.2764 245.26 82.0836C242.496 80.8907 240.154 79.2179 238.234 77.0649C236.343 74.8829 234.903 72.3373 233.914 69.4279C232.924 66.4895 232.43 63.3038 232.43 59.8707ZM244.998 58.9543V59.8707C244.998 61.8491 245.173 63.6965 245.522 65.413C245.871 67.1295 246.424 68.6424 247.18 69.9516C247.966 71.2317 248.984 72.2354 250.235 72.9628C251.486 73.6901 253.013 74.0538 254.817 74.0538C256.563 74.0538 258.061 73.6901 259.312 72.9628C260.563 72.2354 261.567 71.2317 262.323 69.9516C263.08 68.6424 263.633 67.1295 263.982 65.413C264.36 63.6965 264.549 61.8491 264.549 59.8707V58.9543C264.549 57.0341 264.36 55.2303 263.982 53.5429C263.633 51.8264 263.065 50.3135 262.28 49.0043C261.523 47.666 260.52 46.6187 259.268 45.8622C258.017 45.1058 256.505 44.7276 254.73 44.7276C252.955 44.7276 251.442 45.1058 250.191 45.8622C248.969 46.6187 247.966 47.666 247.18 49.0043C246.424 50.3135 245.871 51.8264 245.522 53.5429C245.173 55.2303 244.998 57.0341 244.998 58.9543Z" fill="white"/>
<g filter="url(#filter0_d_1_146)">
<path d="M285.9 61.3508H269.71V51.139H285.9C288.402 51.139 290.439 50.7317 292.01 49.9171C293.581 49.0733 294.73 47.9096 295.458 46.4258C296.185 44.9421 296.549 43.2692 296.549 41.4072C296.549 39.5162 296.185 37.756 295.458 36.1268C294.73 34.4975 293.581 33.1883 292.01 32.1992C290.439 31.21 288.402 30.7154 285.9 30.7154H274.248V84H261.156V20.46H285.9C290.875 20.46 295.138 21.3619 298.687 23.1656C302.265 24.9403 305 27.3987 306.891 30.5408C308.782 33.6829 309.728 37.276 309.728 41.3199C309.728 45.4221 308.782 48.9715 306.891 51.9681C305 54.9648 302.265 57.2777 298.687 58.9069C295.138 60.5362 290.875 61.3508 285.9 61.3508ZM331.242 36.7814V84H318.63V36.7814H331.242ZM317.845 24.4749C317.845 22.642 318.485 21.1291 319.765 19.9363C321.045 18.7434 322.762 18.147 324.915 18.147C327.038 18.147 328.74 18.7434 330.021 19.9363C331.33 21.1291 331.984 22.642 331.984 24.4749C331.984 26.3077 331.33 27.8206 330.021 29.0134C328.74 30.2063 327.038 30.8027 324.915 30.8027C322.762 30.8027 321.045 30.2063 319.765 29.0134C318.485 27.8206 317.845 26.3077 317.845 24.4749ZM379.203 74.181V84H343.331V74.181H379.203ZM378.505 44.0256L348.393 84H339.971V76.5375L369.951 36.7814H378.505V44.0256ZM374.053 36.7814V46.644H340.669V36.7814H374.053ZM424.676 74.181V84H388.804V74.181H424.676ZM423.978 44.0256L393.866 84H385.444V76.5375L415.424 36.7814H423.978V44.0256ZM419.526 36.7814V46.644H386.142V36.7814H419.526ZM458.061 73.3518V52.3173C458.061 50.8044 457.813 49.5097 457.319 48.4333C456.824 47.3277 456.053 46.4695 455.006 45.8585C453.988 45.2476 452.664 44.9421 451.035 44.9421C449.638 44.9421 448.431 45.1894 447.413 45.684C446.394 46.1495 445.609 46.8332 445.056 47.735C444.503 48.6078 444.227 49.6407 444.227 50.8335H431.658C431.658 48.826 432.124 46.9204 433.055 45.1166C433.986 43.3128 435.339 41.7273 437.113 40.3599C438.888 38.9634 440.997 37.8724 443.441 37.0869C445.914 36.3013 448.678 35.9086 451.733 35.9086C455.399 35.9086 458.657 36.5195 461.508 37.7415C464.359 38.9634 466.6 40.7963 468.229 43.2401C469.887 45.684 470.716 48.7388 470.716 52.4045V72.6099C470.716 75.1992 470.876 77.3231 471.196 78.9814C471.516 80.6106 471.982 82.0362 472.593 83.2581V84H459.894C459.283 82.7199 458.817 81.1198 458.497 79.1996C458.206 77.2503 458.061 75.3011 458.061 73.3518ZM459.719 55.2411L459.806 62.3545H452.78C451.122 62.3545 449.682 62.5436 448.46 62.9218C447.238 63.3 446.234 63.8383 445.449 64.5365C444.663 65.2056 444.081 65.9912 443.703 66.8931C443.354 67.795 443.179 68.7841 443.179 69.8606C443.179 70.9371 443.427 71.9117 443.921 72.7845C444.416 73.6282 445.129 74.2973 446.06 74.7919C446.991 75.2574 448.082 75.4902 449.333 75.4902C451.224 75.4902 452.868 75.112 454.264 74.3555C455.661 73.5991 456.737 72.6681 457.493 71.5626C458.279 70.457 458.686 69.4096 458.715 68.4205L462.032 73.7446C461.566 74.9374 460.926 76.1739 460.112 77.454C459.326 78.7341 458.323 79.9415 457.101 81.0761C455.879 82.1817 454.41 83.0981 452.693 83.8254C450.976 84.5237 448.94 84.8728 446.583 84.8728C443.587 84.8728 440.867 84.2764 438.423 83.0836C436.008 81.8616 434.088 80.1888 432.662 78.0649C431.266 75.912 430.567 73.4682 430.567 70.7334C430.567 68.2605 431.033 66.0639 431.964 64.1437C432.895 62.2236 434.262 60.6089 436.066 59.2997C437.899 57.9614 440.183 56.9577 442.918 56.2885C445.652 55.5903 448.824 55.2411 452.431 55.2411H459.719Z" fill="#FF3F4B"/>
</g>
<defs>
<filter id="filter0_d_1_146" x="252.156" y="8.14697" width="227.436" height="82.7258" filterUnits="userSpaceOnUse" color-interpolation-filters="sRGB">
<feFlood flood-opacity="0" result="BackgroundImageFix"/>
<feColorMatrix in="SourceAlpha" type="matrix" values="0 0 0 0 0 0 0 0 0 0 0 0 0 0 0 0 0 0 127 0" result="hardAlpha"/>
<feOffset dx="-1" dy="-2"/>
<feGaussianBlur stdDeviation="4"/>
<feComposite in2="hardAlpha" operator="out"/>
<feColorMatrix type="matrix" values="0 0 0 0 0 0 0 0 0 0 0 0 0 0 0 0 0 0 0.5 0"/>
<feBlend mode="normal" in2="BackgroundImageFix" result="effect1_dropShadow_1_146"/>
<feBlend mode="normal" in="SourceGraphic" in2="effect1_dropShadow_1_146" result="shape"/>
</filter>
</defs>
</svg>
