<svg width="1440" height="900" viewBox="0 0 1440 900" fill="none" xmlns="http://www.w3.org/2000/svg">
<rect width="1440" height="900" fill="#E4E6F1"/>
<rect width="1440" height="900" fill="white"/>
<path d="M385.048 401.448C378.16 401.667 372.857 404.291 369.14 409.32C365.532 414.349 363.728 423.041 363.728 435.396C363.728 439.441 364.111 442.284 364.876 443.924C365.641 445.455 366.024 446.329 366.024 446.548C360.12 446.548 355.692 445.345 352.74 442.94C349.897 440.425 348.476 436.325 348.476 430.64C348.476 422.877 350.389 415.825 354.216 409.484C358.043 403.033 364.111 397.84 372.42 393.904C380.839 389.968 391.499 388 404.4 388C407.024 388 410.523 388.273 414.896 388.82C422.768 389.585 428.344 389.968 431.624 389.968C437.419 389.968 442.339 389.312 446.384 388C446.056 388.984 445.455 391.171 444.58 394.56C443.705 397.84 442.12 400.683 439.824 403.088C437.637 405.384 434.631 406.915 430.804 407.68C424.353 407.68 416.7 406.641 407.844 404.564L400.956 437.2H424.9L422.276 449.336H398.332L385.048 511H361.432L385.048 401.448ZM446.217 511.656C438.127 511.656 431.731 509.579 427.029 505.424C422.328 501.269 419.977 494.709 419.977 485.744C419.977 478.309 421.508 470.055 424.569 460.98C427.631 451.905 432.551 444.088 439.329 437.528C446.108 430.859 454.636 427.524 464.913 427.524C478.908 427.524 485.905 436.271 485.905 453.764V453.928C486.233 454.037 486.835 454.092 487.709 454.092C491.317 454.092 495.472 453.163 500.173 451.304C504.875 449.336 509.139 446.985 512.965 444.252L514.441 448.68C511.271 452.069 507.116 454.967 501.977 457.372C496.948 459.668 491.427 461.308 485.413 462.292C484.539 472.241 482.297 480.933 478.689 488.368C475.081 495.803 470.435 501.543 464.749 505.588C459.064 509.633 452.887 511.656 446.217 511.656ZM452.777 496.896C455.401 496.896 458.025 495.42 460.649 492.468C463.273 489.407 465.569 485.307 467.537 480.168C469.505 474.92 470.927 469.125 471.801 462.784C468.849 462.128 467.373 459.832 467.373 455.896C467.373 451.413 469.068 448.461 472.457 447.04C472.239 443.432 471.692 440.972 470.817 439.66C469.943 438.239 468.412 437.528 466.225 437.528C462.617 437.528 459.119 440.152 455.729 445.4C452.34 450.648 449.607 456.935 447.529 464.26C445.452 471.585 444.413 478.036 444.413 483.612C444.413 488.86 445.015 492.413 446.217 494.272C447.42 496.021 449.607 496.896 452.777 496.896ZM518.288 511.656C510.197 511.656 503.801 509.579 499.1 505.424C494.398 501.269 492.048 494.709 492.048 485.744C492.048 478.309 493.578 470.055 496.64 460.98C499.701 451.905 504.621 444.088 511.4 437.528C518.178 430.859 526.706 427.524 536.984 427.524C550.978 427.524 557.976 436.271 557.976 453.764V453.928C558.304 454.037 558.905 454.092 559.78 454.092C563.388 454.092 567.542 453.163 572.244 451.304C576.945 449.336 581.209 446.985 585.036 444.252L586.512 448.68C583.341 452.069 579.186 454.967 574.048 457.372C569.018 459.668 563.497 461.308 557.484 462.292C556.609 472.241 554.368 480.933 550.76 488.368C547.152 495.803 542.505 501.543 536.82 505.588C531.134 509.633 524.957 511.656 518.288 511.656ZM524.848 496.896C527.472 496.896 530.096 495.42 532.72 492.468C535.344 489.407 537.64 485.307 539.608 480.168C541.576 474.92 542.997 469.125 543.872 462.784C540.92 462.128 539.444 459.832 539.444 455.896C539.444 451.413 541.138 448.461 544.528 447.04C544.309 443.432 543.762 440.972 542.888 439.66C542.013 438.239 540.482 437.528 538.296 437.528C534.688 437.528 531.189 440.152 527.8 445.4C524.41 450.648 521.677 456.935 519.6 464.26C517.522 471.585 516.484 478.036 516.484 483.612C516.484 488.86 517.085 492.413 518.288 494.272C519.49 496.021 521.677 496.896 524.848 496.896ZM586.094 511.984C579.862 511.984 574.669 509.852 570.514 505.588C566.359 501.324 564.282 494.655 564.282 485.58C564.282 477.489 565.867 469.016 569.038 460.16C572.318 451.195 577.129 443.651 583.47 437.528C589.921 431.296 597.574 428.18 606.43 428.18C610.913 428.18 614.247 428.945 616.434 430.476C618.621 432.007 619.714 434.029 619.714 436.544V437.2L627.75 399.48L652.022 396.2L633.162 484.76C632.725 486.4 632.506 488.149 632.506 490.008C632.506 492.195 632.998 493.78 633.982 494.764C635.075 495.639 636.825 496.076 639.23 496.076C642.291 496.076 644.915 494.764 647.102 492.14C649.398 489.516 651.202 486.017 652.514 481.644H659.402C652.733 501.215 641.745 511 626.438 511C621.955 511 618.293 509.797 615.45 507.392C612.717 504.987 611.022 501.488 610.366 496.896C607.523 501.269 604.079 504.877 600.034 507.72C596.098 510.563 591.451 511.984 586.094 511.984ZM596.754 496.076C599.378 496.076 602.002 494.873 604.626 492.468C607.359 490.063 609.218 486.728 610.202 482.464V481.644L618.238 444.088C617.254 440.261 615.013 438.348 611.514 438.348C607.141 438.348 603.205 440.917 599.706 446.056C596.207 451.085 593.474 457.208 591.506 464.424C589.538 471.531 588.554 477.817 588.554 483.284C588.554 488.751 589.319 492.249 590.85 493.78C592.49 495.311 594.458 496.076 596.754 496.076ZM679.966 420.144C676.358 420.144 673.297 418.887 670.782 416.372C668.267 413.857 667.01 410.796 667.01 407.188C667.01 403.58 668.267 400.519 670.782 398.004C673.297 395.38 676.358 394.068 679.966 394.068C683.574 394.068 686.635 395.38 689.15 398.004C691.774 400.519 693.086 403.58 693.086 407.188C693.086 410.796 691.774 413.857 689.15 416.372C686.635 418.887 683.574 420.144 679.966 420.144ZM668.814 511.984C663.566 511.984 659.302 510.344 656.022 507.064C652.851 503.784 651.266 498.864 651.266 492.304C651.266 489.571 651.703 486.017 652.578 481.644L663.73 429H687.346L675.538 484.76C675.101 486.4 674.882 488.149 674.882 490.008C674.882 492.195 675.374 493.78 676.358 494.764C677.451 495.639 679.201 496.076 681.606 496.076C684.777 496.076 687.729 494.764 690.462 492.14C693.195 489.407 695.163 485.908 696.366 481.644H703.254C699.209 493.452 694.015 501.488 687.674 505.752C681.333 509.907 675.046 511.984 668.814 511.984ZM719.753 511.984C711.662 511.984 705.375 509.907 700.893 505.752C696.41 501.488 694.169 494.873 694.169 485.908C694.169 478.364 695.645 470.055 698.597 460.98C701.549 451.905 706.359 444.088 713.029 437.528C719.698 430.859 728.171 427.524 738.449 427.524C750.475 427.524 756.489 432.772 756.489 443.268C756.489 449.391 754.739 455.021 751.241 460.16C747.742 465.299 743.095 469.453 737.301 472.624C731.506 475.685 725.329 477.435 718.769 477.872C718.55 481.152 718.441 483.339 718.441 484.432C718.441 489.789 719.37 493.452 721.229 495.42C723.087 497.279 726.094 498.208 730.249 498.208C736.153 498.208 741.182 496.841 745.337 494.108C749.601 491.375 754.247 487.22 759.277 481.644H764.853C752.717 501.871 737.683 511.984 719.753 511.984ZM720.081 470C724.126 469.781 727.953 468.36 731.561 465.736C735.278 463.112 738.23 459.777 740.417 455.732C742.713 451.687 743.861 447.423 743.861 442.94C743.861 438.457 742.494 436.216 739.761 436.216C735.825 436.216 731.943 439.66 728.117 446.548C724.399 453.436 721.721 461.253 720.081 470ZM775.478 511.984C770.23 511.984 765.966 510.344 762.686 507.064C759.516 503.784 757.93 498.864 757.93 492.304C757.93 489.571 758.368 486.017 759.242 481.644L776.79 399.48L801.062 396.2L782.202 484.76C781.765 486.4 781.546 488.149 781.546 490.008C781.546 492.195 782.038 493.78 783.022 494.764C784.116 495.639 785.865 496.076 788.27 496.076C791.441 496.076 794.393 494.764 797.126 492.14C799.86 489.407 801.828 485.908 803.03 481.644H809.918C805.873 493.452 800.68 501.488 794.338 505.752C787.997 509.907 781.71 511.984 775.478 511.984ZM822.645 511.984C816.413 511.984 811.22 509.852 807.065 505.588C802.91 501.324 800.833 494.655 800.833 485.58C800.833 477.489 802.418 469.016 805.589 460.16C808.869 451.195 813.68 443.651 820.021 437.528C826.472 431.296 834.125 428.18 842.981 428.18C847.464 428.18 850.798 428.945 852.985 430.476C855.172 432.007 856.265 434.029 856.265 436.544V437.692L858.069 429H881.685L869.877 484.76C869.44 486.4 869.221 488.149 869.221 490.008C869.221 494.709 871.462 497.06 875.945 497.06C879.006 497.06 881.63 495.639 883.817 492.796C886.113 489.953 887.917 486.236 889.229 481.644H896.117C892.072 493.452 887.042 501.488 881.029 505.752C875.125 509.907 869.166 511.984 863.153 511.984C858.561 511.984 854.844 510.727 852.001 508.212C849.268 505.588 847.628 501.816 847.081 496.896C843.91 501.379 840.357 505.041 836.421 507.884C832.594 510.617 828.002 511.984 822.645 511.984ZM833.305 496.076C836.038 496.076 838.717 494.819 841.341 492.304C844.074 489.68 845.933 486.127 846.917 481.644L854.789 444.58C854.789 443.159 854.242 441.792 853.149 440.48C852.056 439.059 850.361 438.348 848.065 438.348C843.692 438.348 839.756 440.917 836.257 446.056C832.758 451.085 830.025 457.208 828.057 464.424C826.089 471.531 825.105 477.817 825.105 483.284C825.105 488.751 825.87 492.249 827.401 493.78C829.041 495.311 831.009 496.076 833.305 496.076ZM948.493 511.984C941.824 511.984 936.904 510.235 933.733 506.736C930.672 503.128 929.141 498.7 929.141 493.452C929.141 491.156 929.414 488.587 929.961 485.744C930.508 482.792 931.054 479.949 931.601 477.216C932.257 474.483 932.694 472.733 932.913 471.968C933.788 468.141 934.608 464.369 935.373 460.652C936.138 456.935 936.521 453.928 936.521 451.632C936.521 446.056 934.553 443.268 930.617 443.268C927.774 443.268 925.26 444.689 923.073 447.532C920.886 450.265 919.137 453.873 917.825 458.356L906.673 511H883.057L900.441 429H924.057L922.253 437.528C927.72 431.405 934.116 428.344 941.441 428.344C947.017 428.344 951.445 429.875 954.725 432.936C958.005 435.997 959.645 440.644 959.645 446.876C959.645 450.047 959.262 453.6 958.497 457.536C957.732 461.363 956.638 466.064 955.217 471.64C954.342 475.029 953.522 478.364 952.757 481.644C952.101 484.815 951.773 487.329 951.773 489.188C951.773 491.375 952.265 493.069 953.249 494.272C954.233 495.475 955.928 496.076 958.333 496.076C961.613 496.076 964.237 494.928 966.205 492.632C968.173 490.227 970.141 486.564 972.109 481.644H978.997C974.952 493.671 970.25 501.761 964.893 505.916C959.645 509.961 954.178 511.984 948.493 511.984ZM991.77 511.984C985.538 511.984 980.345 509.852 976.19 505.588C972.035 501.324 969.958 494.655 969.958 485.58C969.958 477.489 971.543 469.016 974.714 460.16C977.994 451.195 982.805 443.651 989.146 437.528C995.597 431.296 1003.25 428.18 1012.11 428.18C1016.59 428.18 1019.92 428.945 1022.11 430.476C1024.3 432.007 1025.39 434.029 1025.39 436.544V437.2L1033.43 399.48L1057.7 396.2L1038.84 484.76C1038.4 486.4 1038.18 487.985 1038.18 489.516C1038.18 493.889 1040.42 496.076 1044.91 496.076C1046.87 496.076 1048.62 495.748 1050.15 495.092C1049.72 500.559 1047.75 504.768 1044.25 507.72C1040.86 510.563 1036.82 511.984 1032.11 511.984C1027.74 511.984 1024.02 510.891 1020.96 508.704C1018.01 506.408 1016.04 502.964 1015.06 498.372C1008.5 507.447 1000.74 511.984 991.77 511.984ZM1002.43 496.076C1004.84 496.076 1007.24 495.037 1009.65 492.96C1012.16 490.883 1014.02 487.985 1015.22 484.268L1015.88 481.644L1023.91 444.088C1022.93 440.261 1020.69 438.348 1017.19 438.348C1012.82 438.348 1008.88 440.917 1005.38 446.056C1001.88 451.085 999.15 457.208 997.182 464.424C995.214 471.531 994.23 477.817 994.23 483.284C994.23 488.751 994.995 492.249 996.526 493.78C998.166 495.311 1000.13 496.076 1002.43 496.076Z" fill="black"/>
<path d="M1068.13 511.656C1064.52 511.656 1061.46 510.399 1058.94 507.884C1056.43 505.369 1055.17 502.308 1055.17 498.7C1055.17 495.092 1056.43 492.031 1058.94 489.516C1061.46 486.892 1064.52 485.58 1068.13 485.58C1071.73 485.58 1074.8 486.892 1077.31 489.516C1079.93 492.031 1081.25 495.092 1081.25 498.7C1081.25 502.308 1079.93 505.369 1077.31 507.884C1074.8 510.399 1071.73 511.656 1068.13 511.656Z" fill="#FF7426"/>
</svg>
