<svg width="734" height="124" viewBox="0 0 734 124" fill="none" xmlns="http://www.w3.org/2000/svg">
<path d="M37.048 13.448C30.16 13.6667 24.8573 16.2907 21.14 21.32C17.532 26.3493 15.728 35.0413 15.728 47.396C15.728 51.4413 16.1107 54.284 16.876 55.924C17.6413 57.4547 18.024 58.3293 18.024 58.548C12.12 58.548 7.692 57.3453 4.74 54.94C1.89733 52.4253 0.476 48.3253 0.476 42.64C0.476 34.8773 2.38933 27.8253 6.216 21.484C10.0427 15.0333 16.1107 9.83999 24.42 5.90399C32.8387 1.96799 43.4987 -9.77516e-06 56.4 -9.77516e-06C59.024 -9.77516e-06 62.5227 0.273323 66.896 0.819989C74.768 1.58533 80.344 1.96799 83.624 1.96799C89.4187 1.96799 94.3387 1.31199 98.384 -9.77516e-06C98.056 0.983991 97.4547 3.17066 96.58 6.55999C95.7053 9.84 94.12 12.6827 91.824 15.088C89.6373 17.384 86.6307 18.9147 82.804 19.68C76.3533 19.68 68.7 18.6413 59.844 16.564L52.956 49.2H76.9L74.276 61.336H50.332L37.048 123H13.432L37.048 13.448ZM98.2174 123.656C90.1268 123.656 83.7308 121.579 79.0294 117.424C74.3281 113.269 71.9774 106.709 71.9774 97.744C71.9774 90.3093 73.5081 82.0547 76.5694 72.98C79.6308 63.9053 84.5508 56.088 91.3294 49.528C98.1081 42.8587 106.636 39.524 116.913 39.524C130.908 39.524 137.905 48.2707 137.905 65.764V65.928C138.233 66.0373 138.835 66.092 139.709 66.092C143.317 66.092 147.472 65.1627 152.173 63.304C156.875 61.336 161.139 58.9853 164.965 56.252L166.441 60.68C163.271 64.0693 159.116 66.9667 153.977 69.372C148.948 71.668 143.427 73.308 137.413 74.292C136.539 84.2413 134.297 92.9333 130.689 100.368C127.081 107.803 122.435 113.543 116.749 117.588C111.064 121.633 104.887 123.656 98.2174 123.656ZM104.777 108.896C107.401 108.896 110.025 107.42 112.649 104.468C115.273 101.407 117.569 97.3067 119.537 92.168C121.505 86.92 122.927 81.1253 123.801 74.784C120.849 74.128 119.373 71.832 119.373 67.896C119.373 63.4133 121.068 60.4613 124.457 59.04C124.239 55.432 123.692 52.972 122.817 51.66C121.943 50.2387 120.412 49.528 118.225 49.528C114.617 49.528 111.119 52.152 107.729 57.4C104.34 62.648 101.607 68.9347 99.5294 76.26C97.4521 83.5853 96.4134 90.036 96.4134 95.612C96.4134 100.86 97.0148 104.413 98.2174 106.272C99.4201 108.021 101.607 108.896 104.777 108.896ZM170.288 123.656C162.197 123.656 155.801 121.579 151.1 117.424C146.398 113.269 144.048 106.709 144.048 97.744C144.048 90.3093 145.578 82.0547 148.64 72.98C151.701 63.9053 156.621 56.088 163.4 49.528C170.178 42.8587 178.706 39.524 188.984 39.524C202.978 39.524 209.976 48.2707 209.976 65.764V65.928C210.304 66.0373 210.905 66.092 211.78 66.092C215.388 66.092 219.542 65.1627 224.244 63.304C228.945 61.336 233.209 58.9853 237.036 56.252L238.512 60.68C235.341 64.0693 231.186 66.9667 226.048 69.372C221.018 71.668 215.497 73.308 209.484 74.292C208.609 84.2413 206.368 92.9333 202.76 100.368C199.152 107.803 194.505 113.543 188.82 117.588C183.134 121.633 176.957 123.656 170.288 123.656ZM176.848 108.896C179.472 108.896 182.096 107.42 184.72 104.468C187.344 101.407 189.64 97.3067 191.608 92.168C193.576 86.92 194.997 81.1253 195.872 74.784C192.92 74.128 191.444 71.832 191.444 67.896C191.444 63.4133 193.138 60.4613 196.528 59.04C196.309 55.432 195.762 52.972 194.888 51.66C194.013 50.2387 192.482 49.528 190.296 49.528C186.688 49.528 183.189 52.152 179.8 57.4C176.41 62.648 173.677 68.9347 171.6 76.26C169.522 83.5853 168.484 90.036 168.484 95.612C168.484 100.86 169.085 104.413 170.288 106.272C171.49 108.021 173.677 108.896 176.848 108.896ZM238.094 123.984C231.862 123.984 226.669 121.852 222.514 117.588C218.359 113.324 216.282 106.655 216.282 97.58C216.282 89.4893 217.867 81.016 221.038 72.16C224.318 63.1947 229.129 55.6507 235.47 49.528C241.921 43.296 249.574 40.18 258.43 40.18C262.913 40.18 266.247 40.9453 268.434 42.476C270.621 44.0067 271.714 46.0293 271.714 48.544V49.2L279.75 11.48L304.022 8.19999L285.162 96.76C284.725 98.4 284.506 100.149 284.506 102.008C284.506 104.195 284.998 105.78 285.982 106.764C287.075 107.639 288.825 108.076 291.23 108.076C294.291 108.076 296.915 106.764 299.102 104.14C301.398 101.516 303.202 98.0173 304.514 93.644H311.402C304.733 113.215 293.745 123 278.438 123C273.955 123 270.293 121.797 267.45 119.392C264.717 116.987 263.022 113.488 262.366 108.896C259.523 113.269 256.079 116.877 252.034 119.72C248.098 122.563 243.451 123.984 238.094 123.984ZM248.754 108.076C251.378 108.076 254.002 106.873 256.626 104.468C259.359 102.063 261.218 98.728 262.202 94.464V93.644L270.238 56.088C269.254 52.2613 267.013 50.348 263.514 50.348C259.141 50.348 255.205 52.9173 251.706 58.056C248.207 63.0853 245.474 69.208 243.506 76.424C241.538 83.5307 240.554 89.8173 240.554 95.284C240.554 100.751 241.319 104.249 242.85 105.78C244.49 107.311 246.458 108.076 248.754 108.076ZM331.966 32.144C328.358 32.144 325.297 30.8867 322.782 28.372C320.267 25.8573 319.01 22.796 319.01 19.188C319.01 15.58 320.267 12.5187 322.782 10.004C325.297 7.37999 328.358 6.06799 331.966 6.06799C335.574 6.06799 338.635 7.37999 341.15 10.004C343.774 12.5187 345.086 15.58 345.086 19.188C345.086 22.796 343.774 25.8573 341.15 28.372C338.635 30.8867 335.574 32.144 331.966 32.144ZM320.814 123.984C315.566 123.984 311.302 122.344 308.022 119.064C304.851 115.784 303.266 110.864 303.266 104.304C303.266 101.571 303.703 98.0173 304.578 93.644L315.73 41H339.346L327.538 96.76C327.101 98.4 326.882 100.149 326.882 102.008C326.882 104.195 327.374 105.78 328.358 106.764C329.451 107.639 331.201 108.076 333.606 108.076C336.777 108.076 339.729 106.764 342.462 104.14C345.195 101.407 347.163 97.908 348.366 93.644H355.254C351.209 105.452 346.015 113.488 339.674 117.752C333.333 121.907 327.046 123.984 320.814 123.984ZM371.753 123.984C363.662 123.984 357.375 121.907 352.893 117.752C348.41 113.488 346.169 106.873 346.169 97.908C346.169 90.364 347.645 82.0547 350.597 72.98C353.549 63.9053 358.359 56.088 365.029 49.528C371.698 42.8587 380.171 39.524 390.449 39.524C402.475 39.524 408.489 44.772 408.489 55.268C408.489 61.3907 406.739 67.0213 403.241 72.16C399.742 77.2987 395.095 81.4533 389.301 84.624C383.506 87.6853 377.329 89.4347 370.769 89.872C370.55 93.152 370.441 95.3387 370.441 96.432C370.441 101.789 371.37 105.452 373.229 107.42C375.087 109.279 378.094 110.208 382.249 110.208C388.153 110.208 393.182 108.841 397.337 106.108C401.601 103.375 406.247 99.22 411.277 93.644H416.853C404.717 113.871 389.683 123.984 371.753 123.984ZM372.081 82C376.126 81.7813 379.953 80.36 383.561 77.736C387.278 75.112 390.23 71.7773 392.417 67.732C394.713 63.6867 395.861 59.4227 395.861 54.94C395.861 50.4573 394.494 48.216 391.761 48.216C387.825 48.216 383.943 51.66 380.117 58.548C376.399 65.436 373.721 73.2533 372.081 82ZM427.478 123.984C422.23 123.984 417.966 122.344 414.686 119.064C411.516 115.784 409.93 110.864 409.93 104.304C409.93 101.571 410.368 98.0173 411.242 93.644L428.79 11.48L453.062 8.19999L434.202 96.76C433.765 98.4 433.546 100.149 433.546 102.008C433.546 104.195 434.038 105.78 435.022 106.764C436.116 107.639 437.865 108.076 440.27 108.076C443.441 108.076 446.393 106.764 449.126 104.14C451.86 101.407 453.828 97.908 455.03 93.644H461.918C457.873 105.452 452.68 113.488 446.338 117.752C439.997 121.907 433.71 123.984 427.478 123.984ZM474.645 123.984C468.413 123.984 463.22 121.852 459.065 117.588C454.91 113.324 452.833 106.655 452.833 97.58C452.833 89.4893 454.418 81.016 457.589 72.16C460.869 63.1947 465.68 55.6507 472.021 49.528C478.472 43.296 486.125 40.18 494.981 40.18C499.464 40.18 502.798 40.9453 504.985 42.476C507.172 44.0067 508.265 46.0293 508.265 48.544V49.692L510.069 41H533.685L521.877 96.76C521.44 98.4 521.221 100.149 521.221 102.008C521.221 106.709 523.462 109.06 527.945 109.06C531.006 109.06 533.63 107.639 535.817 104.796C538.113 101.953 539.917 98.236 541.229 93.644H548.117C544.072 105.452 539.042 113.488 533.029 117.752C527.125 121.907 521.166 123.984 515.153 123.984C510.561 123.984 506.844 122.727 504.001 120.212C501.268 117.588 499.628 113.816 499.081 108.896C495.91 113.379 492.357 117.041 488.421 119.884C484.594 122.617 480.002 123.984 474.645 123.984ZM485.305 108.076C488.038 108.076 490.717 106.819 493.341 104.304C496.074 101.68 497.933 98.1267 498.917 93.644L506.789 56.58C506.789 55.1587 506.242 53.792 505.149 52.48C504.056 51.0587 502.361 50.348 500.065 50.348C495.692 50.348 491.756 52.9173 488.257 58.056C484.758 63.0853 482.025 69.208 480.057 76.424C478.089 83.5307 477.105 89.8173 477.105 95.284C477.105 100.751 477.87 104.249 479.401 105.78C481.041 107.311 483.009 108.076 485.305 108.076ZM600.493 123.984C593.824 123.984 588.904 122.235 585.733 118.736C582.672 115.128 581.141 110.7 581.141 105.452C581.141 103.156 581.414 100.587 581.961 97.744C582.508 94.792 583.054 91.9493 583.601 89.216C584.257 86.4827 584.694 84.7333 584.913 83.968C585.788 80.1413 586.608 76.3693 587.373 72.652C588.138 68.9347 588.521 65.928 588.521 63.632C588.521 58.056 586.553 55.268 582.617 55.268C579.774 55.268 577.26 56.6893 575.073 59.532C572.886 62.2653 571.137 65.8733 569.825 70.356L558.673 123H535.057L552.441 41H576.057L574.253 49.528C579.72 43.4053 586.116 40.344 593.441 40.344C599.017 40.344 603.445 41.8747 606.725 44.936C610.005 47.9973 611.645 52.644 611.645 58.876C611.645 62.0467 611.262 65.6 610.497 69.536C609.732 73.3627 608.638 78.064 607.217 83.64C606.342 87.0293 605.522 90.364 604.757 93.644C604.101 96.8147 603.773 99.3293 603.773 101.188C603.773 103.375 604.265 105.069 605.249 106.272C606.233 107.475 607.928 108.076 610.333 108.076C613.613 108.076 616.237 106.928 618.205 104.632C620.173 102.227 622.141 98.564 624.109 93.644H630.997C626.952 105.671 622.25 113.761 616.893 117.916C611.645 121.961 606.178 123.984 600.493 123.984ZM643.77 123.984C637.538 123.984 632.345 121.852 628.19 117.588C624.035 113.324 621.958 106.655 621.958 97.58C621.958 89.4893 623.543 81.016 626.714 72.16C629.994 63.1947 634.805 55.6507 641.146 49.528C647.597 43.296 655.25 40.18 664.106 40.18C668.589 40.18 671.923 40.9453 674.11 42.476C676.297 44.0067 677.39 46.0293 677.39 48.544V49.2L685.426 11.48L709.698 8.19999L690.838 96.76C690.401 98.4 690.182 99.9853 690.182 101.516C690.182 105.889 692.423 108.076 696.906 108.076C698.874 108.076 700.623 107.748 702.154 107.092C701.717 112.559 699.749 116.768 696.25 119.72C692.861 122.563 688.815 123.984 684.114 123.984C679.741 123.984 676.023 122.891 672.962 120.704C670.01 118.408 668.042 114.964 667.058 110.372C660.498 119.447 652.735 123.984 643.77 123.984ZM654.43 108.076C656.835 108.076 659.241 107.037 661.646 104.96C664.161 102.883 666.019 99.9853 667.222 96.268L667.878 93.644L675.914 56.088C674.93 52.2613 672.689 50.348 669.19 50.348C664.817 50.348 660.881 52.9173 657.382 58.056C653.883 63.0853 651.15 69.208 649.182 76.424C647.214 83.5307 646.23 89.8173 646.23 95.284C646.23 100.751 646.995 104.249 648.526 105.78C650.166 107.311 652.134 108.076 654.43 108.076Z" fill="black"/>
<path d="M720.126 123.656C716.518 123.656 713.457 122.399 710.942 119.884C708.427 117.369 707.17 114.308 707.17 110.7C707.17 107.092 708.427 104.031 710.942 101.516C713.457 98.892 716.518 97.58 720.126 97.58C723.734 97.58 726.795 98.892 729.31 101.516C731.934 104.031 733.246 107.092 733.246 110.7C733.246 114.308 731.934 117.369 729.31 119.884C726.795 122.399 723.734 123.656 720.126 123.656Z" fill="#FF7426"/>
</svg>
